<svg width="160" height="50" viewBox="0 0 160 50" fill="none" xmlns="http://www.w3.org/2000/svg">
<rect width="160" height="50" rx="6" fill="#006BB8" fill-opacity="0.18"/>
<rect width="80" height="50" fill="#006BB8"/>
<path d="M11.566 18.72H17.886C19.326 18.72 20.486 19.04 21.326 19.7C22.206 20.42 22.646 21.44 22.646 22.8C22.646 23.56 22.446 24.22 22.046 24.8C21.586 25.44 20.966 25.86 20.186 26.06V26.1C21.466 26.38 22.166 27.22 22.326 28.62L22.566 30.9C22.646 31.78 22.926 32.48 23.406 33H21.046C20.706 32.56 20.506 31.92 20.426 31.12L20.246 29.34C20.166 28.54 19.906 27.98 19.486 27.62C19.046 27.26 18.426 27.1 17.606 27.1H13.746V33H11.566V18.72ZM13.746 20.58V25.24H17.606C18.566 25.24 19.286 25.02 19.766 24.62C20.226 24.22 20.466 23.64 20.466 22.88C20.466 22.08 20.226 21.5 19.786 21.14C19.306 20.76 18.586 20.58 17.586 20.58H13.746ZM29.5937 22.38C31.2737 22.38 32.5737 22.94 33.4537 24.1C34.2537 25.14 34.6737 26.58 34.6937 28.42H26.8537C26.9337 29.42 27.1937 30.2 27.6737 30.74C28.1537 31.26 28.8137 31.54 29.6537 31.54C30.3937 31.54 30.9937 31.36 31.4537 31.02C31.8137 30.74 32.1137 30.28 32.3937 29.68H34.5137C34.2737 30.64 33.8137 31.46 33.0937 32.1C32.1937 32.88 31.0537 33.28 29.6737 33.28C28.1537 33.28 26.9337 32.8 26.0537 31.86C25.0937 30.86 24.6137 29.52 24.6137 27.82C24.6137 26.28 25.0537 25 25.9737 23.96C26.8537 22.9 28.0737 22.38 29.5937 22.38ZM29.6537 24.12C28.8537 24.12 28.2337 24.34 27.7537 24.82C27.3137 25.28 27.0137 25.94 26.8937 26.82H32.4737C32.2737 25.02 31.3337 24.12 29.6537 24.12ZM39.6427 19.32V22.66H42.0027V24.42H39.6427V30.42C39.6427 30.7 39.7027 30.9 39.8227 31.04C39.9427 31.16 40.1227 31.24 40.3827 31.24H41.7427V33H40.0427C39.1627 33 38.5027 32.76 38.1027 32.3C37.7027 31.86 37.5227 31.24 37.5227 30.42V24.42H35.6027V22.66H37.5227V20.2L39.6427 19.32ZM48.3698 22.38C49.8898 22.38 51.0098 22.76 51.7298 23.52C52.3498 24.18 52.6698 25.14 52.6698 26.4V33H50.7098V31.54C50.3098 32.06 49.8098 32.48 49.2098 32.78C48.5298 33.1 47.7298 33.28 46.8098 33.28C45.7298 33.28 44.8898 33 44.2898 32.46C43.6298 31.92 43.3098 31.22 43.3098 30.36C43.3098 29.2 43.7698 28.3 44.6898 27.68C45.5298 27.08 46.7298 26.78 48.2498 26.74L50.5698 26.68V26.26C50.5698 24.82 49.7898 24.1 48.2298 24.1C47.5698 24.1 47.0298 24.22 46.6298 24.46C46.1498 24.74 45.8498 25.16 45.7298 25.74L43.6298 25.56C43.8498 24.44 44.4098 23.6 45.2898 23.08C46.0498 22.6 47.0898 22.38 48.3698 22.38ZM50.5698 28.22L48.3898 28.28C46.4498 28.32 45.4898 29 45.4898 30.28C45.4898 30.68 45.6498 31 45.9898 31.26C46.3098 31.52 46.7498 31.66 47.2898 31.66C48.1898 31.66 48.9498 31.38 49.5898 30.84C50.2298 30.3 50.5698 29.62 50.5698 28.82V28.22ZM55.3365 18.44H57.4565V33H55.3365V18.44ZM60.0965 18.44H62.2165V26.92L66.6965 22.66H69.4365L64.8565 26.92L69.8365 33H67.1165L63.3965 28.28L62.2165 29.38V33H60.0965V18.44Z" fill="white"/>
</svg>
